<svg width="18" height="20" viewBox="0 0 18 20" fill="none" xmlns="http://www.w3.org/2000/svg">
<g clip-path="url(#clip0)">
<path d="M9.79244 17.3868L8.94819 18.254C8.59072 18.6212 8.01268 18.6212 7.65901 18.254L0.266152 10.6641C-0.0913215 10.2969 -0.0913215 9.70319 0.266152 9.3399L7.65901 1.74615C8.01648 1.37897 8.59452 1.37897 8.94819 1.74615L9.79244 2.61334C10.1537 2.98444 10.1461 3.5899 9.77723 3.95319L5.19472 8.43756H16.1243C16.6301 8.43756 17.037 8.85553 17.037 9.37506V10.6251C17.037 11.1446 16.6301 11.5626 16.1243 11.5626H5.19472L9.77723 16.0469C10.1499 16.4102 10.1575 17.0157 9.79244 17.3868Z" fill="#B4E7EF"/>
</g>
<defs>
<clipPath id="clip0">
<rect width="17.037" height="20" fill="white"/>
</clipPath>
</defs>
</svg>
