<svg width="20" height="20" viewBox="0 0 20 20" fill="none" xmlns="http://www.w3.org/2000/svg">
<path d="M17.5071 11.0277C17.286 11.0277 17.0548 10.9573 16.8336 10.907C16.3858 10.8082 15.9457 10.6771 15.5168 10.5146C15.0505 10.3448 14.5379 10.3536 14.0777 10.5393C13.6175 10.7251 13.2421 11.0746 13.0239 11.5207L12.8028 11.9735C11.8222 11.426 10.9195 10.7492 10.1189 9.9612C9.33552 9.16023 8.6597 8.26054 8.1085 7.28484L8.55078 7.00312C8.99645 6.7847 9.34568 6.40902 9.53125 5.94837C9.71682 5.48771 9.72563 4.97464 9.55598 4.50787C9.39638 4.07766 9.26542 3.63735 9.16395 3.18981C9.11369 2.9584 9.07349 2.73705 9.04333 2.50563C8.92126 1.79692 8.55041 1.15512 7.99754 0.69581C7.44468 0.2365 6.74614 -0.0101358 6.02773 0.000319254H3.01213C2.58718 -0.000237919 2.16691 0.08911 1.77887 0.262506C1.39083 0.435901 1.04379 0.689429 0.760489 1.00647C0.472689 1.33095 0.258164 1.71372 0.131533 2.1287C0.00490194 2.54368 -0.0308569 2.9811 0.0266934 3.41117C0.556144 7.62396 2.47172 11.5404 5.47125 14.5428C8.47079 17.5452 12.3836 19.4626 16.5924 19.9925C16.7229 20.0025 16.8539 20.0025 16.9844 19.9925C17.7842 19.9925 18.5512 19.6745 19.1168 19.1084C19.6823 18.5424 20 17.7746 20 16.9741V13.9556C19.9896 13.2535 19.7349 12.5771 19.2799 12.0427C18.8249 11.5083 18.198 11.1494 17.5071 11.0277ZM17.9997 17.0646C18.0013 17.2105 17.9713 17.3549 17.9116 17.488C17.8519 17.6211 17.7641 17.7396 17.6541 17.8353C17.5442 17.931 17.4147 18.0016 17.2748 18.0423C17.1348 18.0829 16.9877 18.0927 16.8437 18.0708C13.0904 17.5805 9.60333 15.8654 6.92236 13.1909C4.2435 10.4893 2.5329 6.9764 2.0572 3.19988C2.03536 3.05231 2.04658 2.90173 2.09004 2.75903C2.1335 2.61634 2.20812 2.48511 2.3085 2.37483C2.40157 2.26877 2.5159 2.1835 2.64405 2.12456C2.77221 2.06562 2.91132 2.03434 3.05234 2.03274H6.06794C6.3017 2.02754 6.52995 2.10406 6.71342 2.24914C6.89689 2.39421 7.0241 2.59877 7.07314 2.8276C7.11335 3.10261 7.16361 3.37428 7.22392 3.64258C7.34004 4.17297 7.49458 4.69419 7.68631 5.20211L6.27903 5.85611C6.15871 5.91137 6.05047 5.98988 5.96054 6.08712C5.87061 6.18436 5.80076 6.29843 5.75499 6.42277C5.70923 6.54711 5.68845 6.67927 5.69385 6.81167C5.69926 6.94407 5.73074 7.0741 5.78649 7.19429C7.23317 10.296 9.7241 12.7893 12.8229 14.2373C13.0676 14.338 13.3421 14.338 13.5868 14.2373C13.8363 14.1444 14.0387 13.9563 14.1497 13.7141L14.783 12.3055C15.3027 12.4915 15.833 12.6461 16.3712 12.7684C16.6326 12.8287 16.914 12.879 17.1854 12.9193C17.4122 12.9704 17.6142 13.0986 17.7572 13.282C17.9002 13.4655 17.9752 13.6929 17.9695 13.9254L17.9997 17.0646Z" fill="#26798C"/>
</svg>
