<svg width="20" height="20" viewBox="0 0 20 20" fill="none" xmlns="http://www.w3.org/2000/svg">
<path d="M14.269 20C14.0033 20 13.7484 19.8946 13.5605 19.7069C13.3726 19.5192 13.2671 19.2646 13.2671 18.9991V16.3969C13.2982 16.0976 13.2661 15.795 13.1729 15.5089C13.0798 15.2227 12.9275 14.9592 12.726 14.7355C12.6013 14.6003 12.5162 14.4335 12.4802 14.2532C12.4441 14.073 12.4584 13.8863 12.5215 13.7136C12.5847 13.541 12.6942 13.389 12.8381 13.2744C12.982 13.1598 13.1546 13.0871 13.3372 13.064C15.7819 12.7738 18.0362 11.9931 18.0362 7.75948C18.037 6.96888 17.8034 6.19575 17.3649 5.53757C16.9603 4.93168 16.8126 4.19028 16.9541 3.4758C17.0444 3.00972 17.0444 2.53067 16.9541 2.06459C16.2039 2.31798 15.4975 2.68599 14.8601 3.15552C14.7396 3.24101 14.6017 3.29881 14.4562 3.32476C14.3106 3.35072 14.1612 3.34419 14.0185 3.30565C12.2104 2.79527 10.2961 2.79527 8.48794 3.30565C8.34525 3.34419 8.1958 3.35072 8.05029 3.32476C7.90479 3.29881 7.76684 3.24101 7.64633 3.15552C7.00503 2.68055 6.29116 2.31217 5.53228 2.06459C5.437 2.53018 5.437 3.01021 5.53228 3.4758C5.66362 4.19927 5.5092 4.94544 5.10146 5.55759C4.66488 6.22038 4.43157 6.99611 4.43017 7.78951C4.43017 11.6829 6.31378 12.7237 9.13918 13.0841C9.32406 13.107 9.49888 13.1809 9.64401 13.2976C9.78914 13.4143 9.89883 13.5691 9.96075 13.7446C10.019 13.9149 10.0302 14.0978 9.99318 14.2739C9.95615 14.4501 9.87226 14.613 9.75035 14.7455C9.55548 14.9536 9.4059 15.1997 9.31105 15.4685C9.21621 15.7372 9.17816 16.0227 9.1993 16.3068V18.9991C9.1993 19.2646 9.09374 19.5192 8.90584 19.7069C8.71795 19.8946 8.4631 20 8.19738 20C7.93165 20 7.67681 19.8946 7.48892 19.7069C7.30102 19.5192 7.19546 19.2646 7.19546 18.9991V18.4286C6.21094 18.5418 5.2137 18.41 4.29249 18.045C3.37128 17.6801 2.55468 17.0933 1.91536 16.3369C1.58674 15.973 1.19246 15.6742 0.753139 15.4561C0.625513 15.4232 0.505615 15.3656 0.400292 15.2864C0.294968 15.2073 0.206281 15.1082 0.139295 14.9948C0.0723084 14.8814 0.0283344 14.756 0.00988345 14.6256C-0.00856751 14.4953 -0.00113396 14.3625 0.0317594 14.235C0.0646528 14.1076 0.122362 13.9878 0.201592 13.8826C0.280822 13.7774 0.380021 13.6888 0.493526 13.6218C0.60703 13.5549 0.732618 13.511 0.863117 13.4926C0.993616 13.4741 1.12647 13.4816 1.2541 13.5144C2.02482 13.7949 2.71349 14.2627 3.25793 14.8756C4.25985 15.8765 5.26176 16.7572 7.1654 16.3969C7.13193 15.8595 7.2104 15.3211 7.39585 14.8155C5.3319 14.2951 2.38626 12.8138 2.38626 7.80952C2.38362 6.62414 2.73223 5.46448 3.38818 4.47666C3.51002 4.29431 3.55668 4.07201 3.51843 3.85613C3.31597 2.77577 3.4308 1.65997 3.84906 0.643366C3.90589 0.507814 3.99191 0.386427 4.101 0.287829C4.21009 0.189232 4.33958 0.115842 4.48027 0.0728754C4.82092 -0.0272106 6.04326 -0.227383 8.35769 1.27391C10.2312 0.823524 12.185 0.823524 14.0586 1.27391C16.373 -0.227383 17.5954 -0.0372192 17.926 0.0728754C18.0667 0.115842 18.1962 0.189232 18.3053 0.287829C18.4143 0.386427 18.5004 0.507814 18.5572 0.643366C18.9763 1.66328 19.0911 2.78251 18.8878 3.86614C18.8673 3.96377 18.8665 4.06451 18.8854 4.16246C18.9044 4.26042 18.9426 4.35362 18.998 4.43663C19.6559 5.42729 20.0046 6.5907 20 7.7795C20 12.8539 17.0744 14.3251 14.9904 14.7855C15.174 15.3226 15.2489 15.8907 15.2108 16.457V18.9991C15.2113 19.2545 15.114 19.5004 14.9389 19.6864C14.7638 19.8725 14.5242 19.9847 14.269 20Z" fill="#26798C"/>
</svg>
