<svg width="23" height="22" viewBox="0 0 23 22" fill="none" xmlns="http://www.w3.org/2000/svg">
<path fill-rule="evenodd" clip-rule="evenodd" d="M3.97354 0.900024C3.09064 0.900024 2.35445 1.16519 1.773 1.70038C1.19091 2.23616 0.899902 2.91842 0.899902 3.73933C0.899902 4.55941 1.18343 5.24454 1.75112 5.78718C2.3189 6.32991 3.04198 6.59901 3.91201 6.59901H3.93252C4.81576 6.59901 5.54898 6.33021 6.12373 5.78761C6.69859 5.2449 6.98564 4.55615 6.98566 3.72915L6.98563 3.72744C6.97153 2.90138 6.68127 2.2197 6.11297 1.69058C5.54538 1.16214 4.82963 0.900024 3.97354 0.900024ZM2.67567 2.61291C3.00243 2.32658 3.43192 2.17945 3.97354 2.17945C4.50098 2.17945 4.91216 2.32624 5.21789 2.61089C5.52365 2.89556 5.68542 3.2724 5.69873 3.75088C5.69851 4.05935 5.6242 4.32867 5.47813 4.56204C5.33112 4.7969 5.12643 4.98173 4.8613 5.1166C4.59732 5.25087 4.28864 5.31958 3.93252 5.31958H3.91201C3.39972 5.31958 2.98755 5.17022 2.66696 4.87732C2.34717 4.58514 2.18682 4.21199 2.18682 3.74952C2.18682 3.27323 2.35067 2.8977 2.67567 2.61291ZM16.5448 6.74524C15.2798 6.74524 14.2105 7.09243 13.3431 7.79087V7.70063C13.3431 7.60781 13.3274 7.52028 13.2948 7.43924C13.2628 7.35984 13.218 7.29041 13.1597 7.23253C13.1014 7.17466 13.0316 7.13022 12.9519 7.09853C12.8705 7.0662 12.7826 7.05074 12.6894 7.05074H8.42373C8.24417 7.05074 8.08855 7.12101 7.9615 7.25507C7.83467 7.3889 7.77539 7.54777 7.79058 7.72599L7.80079 8.59794L7.81104 10.1857V14.4827L7.80078 16.6818L7.79053 18.5764V20.4457C7.77551 20.6238 7.8349 20.7802 7.96362 20.908C8.02742 20.9714 8.10022 21.0198 8.18173 21.0522C8.26094 21.0837 8.3418 21.1 8.42373 21.1H12.6894C12.8669 21.1 13.0219 21.0348 13.1495 20.908C13.2771 20.7813 13.3431 20.6271 13.3431 20.4501V13.3218C13.3431 13.1351 13.3532 12.9737 13.3728 12.8371C13.3926 12.6992 13.4151 12.5951 13.4393 12.522C13.5049 12.3662 13.5869 12.2133 13.6855 12.0631C13.7767 11.9242 13.9441 11.7739 14.1985 11.6143C14.4413 11.462 14.7165 11.3852 15.0272 11.3852C15.1626 11.3852 15.2726 11.3885 15.358 11.395C15.426 11.4002 15.5442 11.4396 15.7211 11.5275C15.886 11.6094 16.021 11.7188 16.1275 11.8557C16.2321 11.9902 16.3304 12.2067 16.4179 12.5142C16.5035 12.8149 16.5474 13.1853 16.5474 13.6273V20.4501C16.5474 20.6273 16.6136 20.7794 16.7433 20.9001C16.8713 21.0193 17.0256 21.0797 17.2011 21.0797H21.4667C21.5486 21.0797 21.6295 21.0633 21.7087 21.0319C21.7885 21.0002 21.8583 20.9557 21.9166 20.8979C21.9748 20.84 22.0197 20.7706 22.0516 20.6912C22.0834 20.6123 22.0999 20.5318 22.0999 20.4501V13.1385C22.0999 11.1539 21.6139 9.58675 20.6297 8.44985C19.6437 7.31091 18.2777 6.74524 16.5448 6.74524ZM1.79971 7.05074C1.62219 7.05074 1.46718 7.11601 1.33959 7.24272C1.21199 7.36944 1.146 7.5237 1.146 7.70063V20.4501C1.146 20.6273 1.21224 20.7794 1.34192 20.9001C1.46993 21.0193 1.62421 21.0797 1.79971 21.0797H6.06533C6.17836 21.0797 6.28676 21.0514 6.38934 20.9966C6.49331 20.941 6.57569 20.8639 6.63349 20.7655C6.69042 20.6686 6.71904 20.5629 6.71904 20.4501V7.70063C6.71904 7.5237 6.65305 7.36944 6.52545 7.24272C6.39786 7.11601 6.24285 7.05074 6.06533 7.05074H1.79971ZM13.1034 10.0666C13.2065 9.98877 13.2752 9.87658 13.3145 9.73916C14.088 8.6082 15.1613 8.04503 16.5448 8.04503C17.9158 8.04503 18.962 8.48764 19.6982 9.36375C20.4368 10.2426 20.813 11.4962 20.813 13.1385V19.8002H17.8343V13.6273C17.8343 12.885 17.7271 12.25 17.5087 11.7253C17.2903 11.2006 16.9711 10.7937 16.5494 10.5097C16.1268 10.2252 15.6177 10.0854 15.0272 10.0854C14.7859 10.0854 14.5482 10.1171 14.3141 10.1805C14.0821 10.2433 13.8636 10.3273 13.6588 10.4325C13.4524 10.5385 13.2605 10.6727 13.0833 10.8345C12.9067 10.9959 12.748 11.1781 12.6072 11.3809C12.4663 11.5839 12.3466 11.8042 12.2483 12.0414C12.1181 12.3574 12.0562 12.7865 12.0562 13.3218V19.8002H9.07788C9.10419 13.7225 9.10464 9.89865 9.07917 8.33017H12.0562V9.35366C11.9984 9.52506 12.0169 9.69293 12.111 9.84922C12.2367 10.0671 12.4254 10.1835 12.6688 10.1835H12.7099C12.8622 10.1835 12.9963 10.1474 13.1034 10.0666ZM2.45342 19.8002V8.33017H5.43213V19.8002H2.45342Z" fill="#26798C"/>
</svg>
