<svg width="16" height="23" viewBox="0 0 16 23" fill="none" xmlns="http://www.w3.org/2000/svg">
<path fill-rule="evenodd" clip-rule="evenodd" d="M8.41584 0.815821C6.43995 0.712239 4.49638 1.35042 2.96023 2.60661C1.42415 3.86275 0.40445 5.64769 0.097205 7.61662C-0.210036 9.58552 0.216829 11.5996 1.29578 13.2702L6.66569 21.583C6.81 21.8064 7.00749 21.9902 7.24045 22.1175C7.47342 22.2449 7.73439 22.3116 7.99967 22.3116C8.26495 22.3116 8.52592 22.2449 8.75889 22.1175C8.99185 21.9902 9.18934 21.8064 9.33365 21.583L14.7037 13.2702C15.7049 11.7205 16.1472 9.87112 15.9568 8.03206C15.7664 6.19298 14.9548 4.47535 13.6576 3.16724C12.2591 1.75734 10.3917 0.919402 8.41584 0.815821ZM5.6939 3.25129C6.425 2.94592 7.2085 2.78878 7.99969 2.78878C8.79088 2.78878 9.57438 2.94592 10.3055 3.25129C11.0366 3.55667 11.701 4.00433 12.2608 4.56884C14.2638 6.58866 14.596 9.79472 13.0494 12.1888L7.99969 20.0057L2.94992 12.1888C1.40335 9.79472 1.73559 6.58866 3.73855 4.56884C4.29835 4.00433 4.9628 3.55667 5.6939 3.25129ZM7.99881 5.49231C7.34408 5.49231 6.70407 5.65402 6.15969 5.95699C5.6153 6.25996 5.19101 6.69059 4.94046 7.19442C4.68991 7.69824 4.62435 8.25263 4.75208 8.78749C4.87981 9.32235 5.19509 9.81365 5.65805 10.1993C6.12101 10.5849 6.71085 10.8475 7.35299 10.9539C7.99513 11.0603 8.66073 11.0056 9.26562 10.797C9.8705 10.5883 10.3875 10.2349 10.7512 9.78143C11.115 9.328 11.3091 8.79491 11.3091 8.24958C11.3081 7.51856 10.959 6.81772 10.3385 6.30081C9.71787 5.7839 8.87645 5.49314 7.99881 5.49231ZM7.99881 9.62821C7.67145 9.62821 7.35144 9.54735 7.07925 9.39587C6.80706 9.24438 6.59491 9.02907 6.46963 8.77716C6.34436 8.52524 6.31158 8.24805 6.37544 7.98062C6.43931 7.71319 6.59695 7.46754 6.82843 7.27473C7.05991 7.08193 7.35483 6.95063 7.6759 6.89743C7.99697 6.84424 8.32977 6.87154 8.63221 6.97588C8.93465 7.08023 9.19315 7.25693 9.37503 7.48365C9.5569 7.71036 9.65397 7.97691 9.65397 8.24958C9.65347 8.61508 9.47892 8.9655 9.16862 9.22395C8.85833 9.4824 8.43763 9.62779 7.99881 9.62821Z" fill="#26798C"/>
</svg>
