<svg width="21" height="17" viewBox="0 0 21 17" fill="none" xmlns="http://www.w3.org/2000/svg">
<path fill-rule="evenodd" clip-rule="evenodd" d="M1.75047 1.94348C1.75047 1.83614 1.83752 1.74913 1.94491 1.74913H19.0558C19.1632 1.74913 19.2502 1.83614 19.2502 1.94348V1.98674L10.5 7.33154L1.75047 1.98721V1.94348ZM0.000489235 2.50586V14.7704C0.000489235 15.8438 0.871036 16.7139 1.94491 16.7139H19.0558C20.1297 16.7139 21.0002 15.8438 21.0002 14.7704V1.94348C21.0002 0.870124 20.1297 0 19.0558 0H1.94491C0.871036 0 0.000489235 0.870124 0.000489235 1.94348V2.44743C-0.000163145 2.46694 -0.000160453 2.48642 0.000489235 2.50586ZM1.75047 4.03709L10.5 9.38143L19.2502 4.03662V14.7704C19.2502 14.8778 19.1632 14.9648 19.0558 14.9648H1.94491C1.83752 14.9648 1.75047 14.8778 1.75047 14.7704V4.03709Z" fill="#26798C"/>
</svg>
