<svg width="18" height="19" viewBox="0 0 18 19" fill="none" xmlns="http://www.w3.org/2000/svg">
<path fill-rule="evenodd" clip-rule="evenodd" d="M4 5C4 2.243 6.243 0 9 0C11.757 0 14 2.243 14 5C14 7.757 11.757 10 9 10C6.243 10 4 7.757 4 5ZM6 5C6 6.654 7.346 8 9 8C10.654 8 12 6.654 12 5C12 3.346 10.654 2 9 2C7.346 2 6 3.346 6 5ZM18 18V19H17H16H2H1H0V18C0 14.141 3.14 11 7 11H11C14.859 11 18 14.141 18 18ZM7 13C4.58536 13 2.565 14.7205 2.10045 17H15.8995C15.435 14.7205 13.4146 13 11 13H7Z" fill="#26798C"/>
</svg>
