<svg width="21" height="20" viewBox="0 0 21 20" fill="none" xmlns="http://www.w3.org/2000/svg">
<path d="M4.82517 18.3333H16.0839V15H4.82517V18.3333ZM4.82517 10H16.0839V5H14.0734C13.7383 5 13.4535 4.87847 13.219 4.63542C12.9844 4.39236 12.8671 4.09722 12.8671 3.75V1.66667H4.82517V10ZM19.3007 10.8333C19.3007 10.6076 19.2211 10.4123 19.062 10.2474C18.9028 10.0825 18.7143 10 18.4965 10C18.2787 10 18.0902 10.0825 17.9311 10.2474C17.7719 10.4123 17.6923 10.6076 17.6923 10.8333C17.6923 11.059 17.7719 11.2543 17.9311 11.4193C18.0902 11.5842 18.2787 11.6667 18.4965 11.6667C18.7143 11.6667 18.9028 11.5842 19.062 11.4193C19.2211 11.2543 19.3007 11.059 19.3007 10.8333ZM20.9091 10.8333V16.25C20.9091 16.3628 20.8693 16.4605 20.7897 16.543C20.7101 16.6254 20.6159 16.6667 20.507 16.6667H17.6923V18.75C17.6923 19.0972 17.575 19.3924 17.3405 19.6354C17.1059 19.8785 16.8211 20 16.486 20H4.42308C4.088 20 3.80318 19.8785 3.56862 19.6354C3.33406 19.3924 3.21678 19.0972 3.21678 18.75V16.6667H0.402098C0.293196 16.6667 0.198955 16.6254 0.119373 16.543C0.0397909 16.4605 0 16.3628 0 16.25V10.8333C0 10.1476 0.236651 9.55946 0.709954 9.06901C1.18326 8.57856 1.7508 8.33333 2.41259 8.33333H3.21678V1.25C3.21678 0.902778 3.33406 0.607639 3.56862 0.364583C3.80318 0.121528 4.088 0 4.42308 0H12.8671C13.2022 0 13.5708 0.0868056 13.9729 0.260417C14.375 0.434028 14.6933 0.642361 14.9279 0.885417L16.8378 2.86458C17.0724 3.10764 17.2735 3.4375 17.441 3.85417C17.6085 4.27083 17.6923 4.65278 17.6923 5V8.33333H18.4965C19.1583 8.33333 19.7258 8.57856 20.1991 9.06901C20.6724 9.55946 20.9091 10.1476 20.9091 10.8333Z" fill="#26798C"/>
</svg>
