<svg width="20" height="18" viewBox="0 0 20 18" fill="none" xmlns="http://www.w3.org/2000/svg">
<path d="M18.5194 0.001843C18.2724 0.0198484 18.0299 0.0779083 17.8015 0.173758H17.7984C17.5791 0.260871 16.5366 0.700295 14.9516 1.36637L9.27185 3.76315C5.19629 5.4823 1.18999 7.17524 1.18999 7.17524L1.23769 7.15674C1.23769 7.15674 0.961475 7.2477 0.672947 7.44583C0.494697 7.55948 0.341312 7.70818 0.222074 7.88294C0.0805034 8.09109 -0.0333689 8.40948 0.00894855 8.73866C0.0781952 9.29526 0.438278 9.62907 0.696799 9.81332C0.958397 9.99988 1.20769 10.087 1.20769 10.087H1.21384L4.97086 11.3552C5.13936 11.8971 6.11574 15.1134 6.35041 15.8542C6.4889 16.2967 6.62355 16.5735 6.79205 16.7847C6.8736 16.8927 6.96901 16.9829 7.08365 17.0553C7.14325 17.0901 7.2068 17.1175 7.27293 17.137L7.23446 17.1278C7.246 17.1309 7.25523 17.1401 7.26369 17.1432C7.29447 17.1517 7.31524 17.1548 7.35448 17.1609C7.94923 17.3413 8.42704 16.9713 8.42704 16.9713L8.45397 16.9497L10.6722 14.9261L14.3899 17.7838L14.4746 17.8201C15.2494 18.1608 16.0342 17.9712 16.4489 17.6366C16.8667 17.2997 17.029 16.8688 17.029 16.8688L17.0559 16.7994L19.9289 2.05249C20.0105 1.68861 20.0312 1.34787 19.9412 1.01714C19.8484 0.682429 19.6341 0.394554 19.3403 0.209991C19.0937 0.0597504 18.8076 -0.012767 18.5194 0.001843ZM18.4416 1.58223C18.4386 1.63079 18.4478 1.6254 18.4263 1.71868V1.72716L15.5802 16.3206C15.5679 16.3415 15.5471 16.3869 15.4902 16.4324C15.4302 16.4802 15.3825 16.5103 15.1324 16.4108L10.5852 12.9178L7.83844 15.4264L8.41549 11.7337L15.8449 4.79541C16.1511 4.51017 16.0488 4.45004 16.0488 4.45004C16.0703 4.10004 15.5864 4.34751 15.5864 4.34751L6.21807 10.1625L6.21499 10.1471L1.72473 8.63227V8.62919L1.71319 8.62688C1.72106 8.62426 1.72877 8.62117 1.73627 8.61763L1.76089 8.60529L1.78474 8.59681C1.78474 8.59681 5.79412 6.90387 9.86968 5.18473C11.9101 4.32361 13.966 3.45633 15.5471 2.78717C17.1283 2.12187 18.297 1.63388 18.3632 1.60767C18.4263 1.583 18.3962 1.583 18.4416 1.583V1.58223Z" fill="#26798C"/>
</svg>
